<?xml version="1.0" encoding="UTF-8"?>
<svg version="1.1" xmlns="http://www.w3.org/2000/svg" width="1536" height="1024">
<path d="M0 0 C506.88 0 1013.76 0 1536 0 C1536 337.92 1536 675.84 1536 1024 C1029.12 1024 522.24 1024 0 1024 C0 686.08 0 348.16 0 0 Z " fill="#FBFAFB" transform="translate(0,0)"/>
<path d="M0 0 C1.084021 0.00523682 2.16804199 0.01047363 3.28491211 0.01586914 C4.45473633 0.0190918 5.62456055 0.02231445 6.82983398 0.02563477 C8.0615332 0.03401367 9.29323242 0.04239258 10.56225586 0.05102539 C12.41560547 0.05779297 12.41560547 0.05779297 14.30639648 0.06469727 C17.37089703 0.07652931 20.43530307 0.09301366 23.49975586 0.11352539 C23.91112793 1.32258545 24.3225 2.53164551 24.74633789 3.77734375 C26.70553822 9.53533032 28.66507773 15.29320142 30.62475586 21.05102539 C30.98700256 22.11536804 31.34924927 23.17971069 31.72247314 24.27630615 C36.32339545 37.79365041 40.93039221 51.30888802 45.54840088 64.82040405 C51.05151256 80.92388513 56.5446092 97.03079393 62.0256958 113.14178467 C62.83576739 115.52207431 63.64642752 117.90216374 64.45770264 120.28204346 C65.59315023 123.61333672 66.72640414 126.94536864 67.85913086 130.27758789 C68.19806366 131.27052856 68.53699646 132.26346924 68.88619995 133.28649902 C69.20178864 134.2163562 69.51737732 135.14621338 69.8425293 136.10424805 C70.11562927 136.90657867 70.38872925 137.7089093 70.67010498 138.53555298 C71.68996446 141.70456017 72.58518946 144.912543 73.49975586 148.11352539 C64.91975586 148.11352539 56.33975586 148.11352539 47.49975586 148.11352539 C42.99975586 136.86352539 42.99975586 136.86352539 41.35913086 131.66821289 C41.04427734 130.67805176 40.72942383 129.68789063 40.4050293 128.66772461 C40.02378906 127.45358887 39.64254883 126.23945312 39.24975586 124.98852539 C37.39350586 119.11040039 37.39350586 119.11040039 35.49975586 113.11352539 C18.33975586 112.78352539 1.17975586 112.45352539 -16.50024414 112.11352539 C-17.49024414 115.74352539 -18.48024414 119.37352539 -19.50024414 123.11352539 C-20.16348555 125.29997759 -20.84142664 127.48210723 -21.54321289 129.65649414 C-22.0192395 131.1379895 -22.0192395 131.1379895 -22.50488281 132.64941406 C-22.89522705 133.8544458 -23.28557129 135.05947754 -23.68774414 136.30102539 C-25.57493164 142.14821289 -25.57493164 142.14821289 -27.50024414 148.11352539 C-36.08024414 148.11352539 -44.66024414 148.11352539 -53.50024414 148.11352539 C-50.12422983 136.86014434 -50.12422983 136.86014434 -48.4699707 131.96923828 C-48.09762299 130.8659166 -47.72527527 129.76259491 -47.34164429 128.62583923 C-46.74726059 126.87370872 -46.74726059 126.87370872 -46.14086914 125.08618164 C-45.71955719 123.84038834 -45.29824524 122.59459503 -44.86416626 121.31105042 C-43.73005708 117.95868326 -42.59343169 114.60717479 -41.45601654 111.25592804 C-40.74633237 109.16449745 -40.03730231 107.07284609 -39.32843018 104.98114014 C-32.54990738 84.98304817 -25.68504751 65.0172459 -18.69290161 45.09269714 C-18.4076059 44.27972672 -18.12231018 43.46675629 -17.82836914 42.62915039 C-17.5495993 41.83499222 -17.27082947 41.04083405 -16.98361206 40.22261047 C-15.02234708 34.62670007 -13.08952018 29.0214821 -11.17211914 23.41040039 C-10.91032867 22.64484833 -10.64853821 21.87929626 -10.3788147 21.09054565 C-9.15978244 17.52358707 -7.94434708 13.95545709 -6.73413086 10.38549805 C-6.31921387 9.16910645 -5.90429688 7.95271484 -5.47680664 6.69946289 C-4.93660889 5.10690674 -4.93660889 5.10690674 -4.38549805 3.48217773 C-3.13731779 0.14245218 -3.13731779 0.14245218 0 0 Z " fill="#2A2F31" transform="translate(1201.500244140625,418.886474609375)"/>
<path d="M0 0 C5.68889306 3.85447073 9.21334632 9.06965368 12.84765625 14.81640625 C13.18796875 14.32011719 13.52828125 13.82382812 13.87890625 13.3125 C20.24655059 4.38763679 26.90679411 -1.7295686 37.84765625 -4.18359375 C46.95204301 -5.22005693 55.04112157 -3.77172781 63.09765625 0.56640625 C71.35600917 7.32324046 75.81271503 15.36642628 77.84765625 25.81640625 C78.09640123 28.57278627 78.10235851 31.30228215 78.07470703 34.06835938 C78.07499908 34.84981323 78.07529114 35.63126709 78.07559204 36.43640137 C78.0742113 38.99027047 78.05871005 41.54383884 78.04296875 44.09765625 C78.03923414 45.8798405 78.03638929 47.66202682 78.03439331 49.44421387 C78.0267921 54.11309574 78.0071741 58.7818513 77.98498535 63.45068359 C77.96445093 68.22361544 77.95537541 72.99656788 77.9453125 77.76953125 C77.9239246 87.11855374 77.88877142 96.46744968 77.84765625 105.81640625 C70.25765625 105.81640625 62.66765625 105.81640625 54.84765625 105.81640625 C54.83307373 103.61662109 54.81849121 101.41683594 54.8034668 99.15039062 C54.75300871 91.86202015 54.6863941 84.5738608 54.61194134 77.28569794 C54.56731603 72.86919499 54.52804288 68.45278261 54.5012207 64.03613281 C54.47510917 59.76953023 54.43465195 55.50327767 54.38446999 51.2368927 C54.36785415 49.6135546 54.35630709 47.99015604 54.35004234 46.366745 C54.56041095 33.08245292 54.56041095 33.08245292 48.91015625 21.37890625 C44.58904162 18.10533456 39.06424924 18.21482221 33.84765625 18.81640625 C27.75858402 20.65086358 23.19013662 24.43011622 19.84765625 29.81640625 C18.07635493 34.3075531 17.58094993 38.10895605 17.52880859 42.92333984 C17.51876297 43.60696594 17.50871735 44.29059204 17.49836731 44.99493408 C17.46769216 47.2348961 17.4505444 49.47473947 17.43359375 51.71484375 C17.41486944 53.2756959 17.39529509 54.83653806 17.37490845 56.39736938 C17.32371451 60.49076432 17.28402093 64.58419202 17.24676514 68.67773438 C17.20664532 72.86075869 17.15558948 77.04364818 17.10546875 81.2265625 C17.00886035 89.4230915 16.92541928 97.61967677 16.84765625 105.81640625 C8.92765625 105.81640625 1.00765625 105.81640625 -7.15234375 105.81640625 C-7.16168945 103.55603516 -7.17103516 101.29566406 -7.18066406 98.96679688 C-7.21450804 91.47883206 -7.27009807 83.99114068 -7.33624649 76.50339508 C-7.37567042 71.96579085 -7.40788372 67.42837919 -7.42333984 62.890625 C-7.43854009 58.50724689 -7.47304487 54.12439841 -7.52065277 49.74125671 C-7.53543197 48.07326372 -7.54338277 46.40519509 -7.5442276 44.73713684 C-7.3480905 32.64529737 -7.3480905 32.64529737 -12.15234375 21.81640625 C-17.48121303 18.40592991 -22.92033334 17.93865831 -29.15234375 18.81640625 C-34.47191271 20.51355861 -38.14907865 23.03342849 -41.15234375 27.81640625 C-43.61510598 32.82628052 -44.53417586 36.45796857 -44.5847168 42.12866211 C-44.59490845 42.82218781 -44.6051001 43.5157135 -44.61560059 44.23025513 C-44.64552788 46.49733775 -44.65496486 48.7639965 -44.6640625 51.03125 C-44.68092432 52.61309694 -44.69907658 54.19493061 -44.71846008 55.77674866 C-44.76580334 59.92111054 -44.79571368 64.06541858 -44.82189941 68.20996094 C-44.85178444 72.44672272 -44.89828733 76.68329926 -44.94335938 80.91992188 C-45.02921411 89.21867399 -45.09510055 97.51740741 -45.15234375 105.81640625 C-52.74234375 105.81640625 -60.33234375 105.81640625 -68.15234375 105.81640625 C-68.15234375 70.17640625 -68.15234375 34.53640625 -68.15234375 -2.18359375 C-60.89234375 -2.18359375 -53.63234375 -2.18359375 -46.15234375 -2.18359375 C-45.82234375 2.10640625 -45.49234375 6.39640625 -45.15234375 10.81640625 C-43.83234375 9.24890625 -42.51234375 7.68140625 -41.15234375 6.06640625 C-30.48687272 -5.80837803 -13.99280427 -7.69477258 0 0 Z " fill="#2D3134" transform="translate(889.15234375,461.18359375)"/>
<path d="M0 0 C7.73924272 6.78358724 11.72359749 15.61849398 12.9296875 25.69140625 C13.0135919 28.2918466 13.0568448 30.8635347 13.04321289 33.46264648 C13.04335892 34.20494003 13.04350494 34.94723358 13.0436554 35.71202087 C13.04296424 38.14137801 13.03520953 40.57065642 13.02734375 43 C13.02547673 44.6939337 13.02405417 46.38786794 13.02305603 48.08180237 C13.01925318 52.52214063 13.00944212 56.96244575 12.99835205 61.402771 C12.98808977 65.94103548 12.98354812 70.47930536 12.97851562 75.01757812 C12.9678177 83.90887101 12.95023915 92.80013068 12.9296875 101.69140625 C5.3396875 101.69140625 -2.2503125 101.69140625 -10.0703125 101.69140625 C-10.4003125 98.06140625 -10.7303125 94.43140625 -11.0703125 90.69140625 C-11.8953125 91.76390625 -12.7203125 92.83640625 -13.5703125 93.94140625 C-19.24735229 100.55348788 -27.30217237 103.26953377 -35.8671875 104.02734375 C-47.54044865 104.14269218 -57.76236095 102.56736067 -66.65625 94.19921875 C-73.80522936 86.63176255 -74.66404598 78.50949464 -74.41015625 68.34375 C-73.53556405 58.944397 -69.23731802 51.78627436 -62.0703125 45.69140625 C-55.52651765 41.53364816 -48.75482758 38.7258602 -41.0703125 37.69140625 C-40.31234375 37.58183594 -39.554375 37.47226562 -38.7734375 37.359375 C-29.26480693 36.25200343 -19.62634813 36.60717087 -10.0703125 36.69140625 C-10.15806913 34.48235994 -10.26625617 32.27412032 -10.3828125 30.06640625 C-10.44082031 28.83664062 -10.49882813 27.606875 -10.55859375 26.33984375 C-11.26442346 21.30743955 -12.84532731 17.94949915 -16.3828125 14.31640625 C-21.46503511 11.25683143 -28.41153695 11.97762888 -34.0703125 12.69140625 C-39.35674336 14.86295809 -41.7766389 17.17436818 -45.0703125 21.69140625 C-45.4003125 22.68140625 -45.7303125 23.67140625 -46.0703125 24.69140625 C-53.6603125 24.69140625 -61.2503125 24.69140625 -69.0703125 24.69140625 C-67.78750379 13.14612784 -64.32029663 6.7595369 -55.421875 -0.62109375 C-39.56533302 -11.9998747 -15.61695366 -11.41238921 0 0 Z " fill="#2A2E31" transform="translate(789.0703125,465.30859375)"/>
<path d="M0 0 C8.42734007 7.04356085 12.67139578 15.23394843 14.203125 26.08203125 C14.477212 32.06365291 14.43642777 38.03690069 14.3984375 44.0234375 C14.39470176 45.75935197 14.39185744 47.49526857 14.38986206 49.23118591 C14.38226974 53.77346745 14.36265963 58.31561865 14.3404541 62.85784912 C14.31990028 67.50352211 14.31084005 72.14921641 14.30078125 76.79492188 C14.27940909 85.89069113 14.24426341 94.9863299 14.203125 104.08203125 C6.283125 104.08203125 -1.636875 104.08203125 -9.796875 104.08203125 C-9.81145752 101.91253906 -9.82604004 99.74304688 -9.84106445 97.5078125 C-9.89152608 90.31922498 -9.95814128 83.13085145 -10.03258991 75.94247437 C-10.07721226 71.58650584 -10.11648603 67.23062909 -10.14331055 62.87451172 C-10.16942508 58.66626129 -10.20988433 54.45836557 -10.26006126 50.25033569 C-10.27667509 48.64932689 -10.28822339 47.04825681 -10.29448891 45.44717407 C-10.07049383 32.26912948 -10.07049383 32.26912948 -15.734375 20.70703125 C-21.35823251 16.27611321 -26.8367744 16.27630532 -33.796875 17.08203125 C-40.89477314 19.12416396 -44.92393962 22.66366379 -48.73828125 28.8984375 C-50.8274237 33.20777561 -50.94130382 37.10303031 -51.00219727 41.87011719 C-51.01704666 42.8804879 -51.01704666 42.8804879 -51.03219604 43.91127014 C-51.06369158 46.12961354 -51.08852097 48.34797832 -51.11328125 50.56640625 C-51.13386111 52.10769191 -51.15485785 53.64897205 -51.17625427 55.19024658 C-51.2313684 59.24094163 -51.28082454 63.29168672 -51.32910156 67.34246826 C-51.37939456 71.47835731 -51.43503987 75.61417397 -51.49023438 79.75 C-51.59768554 87.86061746 -51.6986645 95.97129663 -51.796875 104.08203125 C-59.386875 104.08203125 -66.976875 104.08203125 -74.796875 104.08203125 C-74.796875 68.44203125 -74.796875 32.80203125 -74.796875 -3.91796875 C-67.206875 -3.91796875 -59.616875 -3.91796875 -51.796875 -3.91796875 C-51.466875 0.37203125 -51.136875 4.66203125 -50.796875 9.08203125 C-49.806875 7.86515625 -48.816875 6.64828125 -47.796875 5.39453125 C-35.81110622 -8.23114151 -15.038474 -10.31269656 0 0 Z " fill="#2D3134" transform="translate(686.796875,462.91796875)"/>
<path d="M0 0 C34.65 0 69.3 0 105 0 C105 7.92 105 15.84 105 24 C91.47 24 77.94 24 64 24 C64 64.92 64 105.84 64 148 C56.08 148 48.16 148 40 148 C40 107.08 40 66.16 40 24 C26.8 24 13.6 24 0 24 C0 16.08 0 8.16 0 0 Z " fill="#2D3134" transform="translate(393,419)"/>
<path d="M0 0 C9.24 0 18.48 0 28 0 C34.625 11.9375 34.625 11.9375 36.67431641 15.64428711 C40.19368421 21.95609653 43.86398938 28.07210161 48 34 C48.49927002 33.14768799 48.99854004 32.29537598 49.51293945 31.41723633 C51.37449151 28.23950979 53.23638923 25.0619859 55.09838867 21.88452148 C55.90251873 20.51218049 56.70655642 19.13978537 57.51049805 17.76733398 C58.66951304 15.78875544 59.8288657 13.81037509 60.98828125 11.83203125 C61.34465164 11.22349808 61.70102203 10.6149649 62.06819153 9.98799133 C63.04351216 8.3241836 64.02167125 6.66204072 65 5 C65.44988281 4.04416016 65.89976563 3.08832031 66.36328125 2.10351562 C68 0 68 0 70.8190918 -0.56762695 C71.93453369 -0.54144287 73.04997559 -0.51525879 74.19921875 -0.48828125 C76.01196289 -0.46411133 76.01196289 -0.46411133 77.86132812 -0.43945312 C79.7552832 -0.37661133 79.7552832 -0.37661133 81.6875 -0.3125 C83.59885742 -0.27866211 83.59885742 -0.27866211 85.54882812 -0.24414062 C88.7003896 -0.18512262 91.84961279 -0.10282975 95 0 C94.55922119 0.69109863 94.11844238 1.38219727 93.66430664 2.09423828 C90.82397459 6.55189151 87.98628285 11.01074587 85.18359375 15.4921875 C84.26837242 16.95321475 83.3530045 18.41415017 82.4375 19.875 C81.69463745 21.06234741 81.69463745 21.06234741 80.93676758 22.27368164 C78.06746143 26.82788912 75.1240266 31.31557118 72.078125 35.75390625 C71.43045166 36.70217285 70.78277832 37.65043945 70.11547852 38.62744141 C68.84822251 40.47448669 67.57033316 42.31428947 66.28100586 44.14599609 C65.70745361 44.98340332 65.13390137 45.82081055 64.54296875 46.68359375 C63.7698938 47.79045532 63.7698938 47.79045532 62.98120117 48.91967773 C61.81470537 50.92798302 61.81470537 50.92798302 62.2109375 53.04101562 C63.02258488 55.05607088 63.93804343 56.81329765 65.08203125 58.66015625 C65.51338379 59.36172852 65.94473633 60.06330078 66.38916016 60.78613281 C66.8588623 61.53733398 67.32856445 62.28853516 67.8125 63.0625 C68.30024902 63.85108398 68.78799805 64.63966797 69.29052734 65.45214844 C70.85324994 67.97260456 72.42506667 70.48715788 74 73 C74.51127441 73.81645996 75.02254883 74.63291992 75.54931641 75.47412109 C79.90792686 82.42373732 84.27467756 89.36812745 88.7578125 96.23828125 C89.18046387 96.88764648 89.60311523 97.53701172 90.03857422 98.20605469 C90.8250511 99.41128851 91.61551901 100.61393087 92.41064453 101.81347656 C95 105.77937463 95 105.77937463 95 108 C90.62641047 108.29121422 86.25530741 108.46824053 81.875 108.625 C80.6375 108.70878906 79.4 108.79257812 78.125 108.87890625 C69.20181807 109.11877673 69.20181807 109.11877673 66.07080078 106.20410156 C64.46930335 103.54629732 63.24979204 100.83985824 62 98 C60.73448424 95.7884418 59.44404913 93.59101047 58.1328125 91.40625 C57.13410522 89.68690688 56.13540782 87.96755701 55.13867188 86.24707031 C54.45396699 85.06697683 53.76739519 83.88796488 53.07910156 82.70996094 C52.07203776 80.98613248 51.07106961 79.2587474 50.0703125 77.53125 C49.48008301 76.51611328 48.88985352 75.50097656 48.28173828 74.45507812 C47 72 47 72 47 70 C46.34 70 45.68 70 45 70 C44.87633057 70.57637207 44.75266113 71.15274414 44.62524414 71.74658203 C43.9830045 74.0612528 43.11780777 75.93381849 41.99609375 78.0546875 C41.58866943 78.82828613 41.18124512 79.60188477 40.76147461 80.39892578 C40.10610718 81.62458252 40.10610718 81.62458252 39.4375 82.875 C38.76956421 84.13352783 38.76956421 84.13352783 38.08813477 85.41748047 C27.23104931 105.76895069 27.23104931 105.76895069 25 108 C23.00035018 108.08758003 20.9976389 108.10696576 18.99609375 108.09765625 C17.17368164 108.09282227 17.17368164 108.09282227 15.31445312 108.08789062 C14.03505859 108.07951172 12.75566406 108.07113281 11.4375 108.0625 C10.15423828 108.05798828 8.87097656 108.05347656 7.54882812 108.04882812 C4.36583978 108.03699545 1.18294238 108.02051068 -2 108 C-0.6518016 104.36222387 0.9860277 101.20839942 3.0546875 97.9296875 C3.96855225 96.47477905 3.96855225 96.47477905 4.90087891 94.99047852 C5.55233887 93.96237061 6.20379883 92.9342627 6.875 91.875 C7.87732666 90.2815979 7.87732666 90.2815979 8.89990234 88.65600586 C12.08268634 83.60026134 15.28137863 78.55467509 18.484375 73.51171875 C19.01691895 72.67205566 19.54946289 71.83239258 20.09814453 70.96728516 C21.08077245 69.41965404 22.06592459 67.87362123 23.05419922 66.32958984 C26.23742946 61.32443178 29.17152186 56.21352783 32 51 C24.2600684 38.8759532 16.51515078 26.75517556 8.6875 14.6875 C8.15552002 13.86540039 7.62354004 13.04330078 7.07543945 12.19628906 C6.58003662 11.43413086 6.08463379 10.67197266 5.57421875 9.88671875 C5.14713623 9.22889404 4.72005371 8.57106934 4.2800293 7.89331055 C3.35143656 6.51981508 2.36220822 5.18670532 1.33911133 3.88208008 C0 2 0 2 0 0 Z " fill="#2A2F31" transform="translate(1023,459)"/>
<path d="M0 0 C0.33 0.99 0.66 1.98 1 3 C1.66 3 2.32 3 3 3 C3.67635064 6.20636973 4.33932448 9.41536689 5 12.625 C5.19078125 13.52863281 5.3815625 14.43226563 5.578125 15.36328125 C6.52210398 19.98203556 7.25214768 24.25647172 7 29 C7.66 29 8.32 29 9 29 C9.19491452 30.45736087 9.38069358 31.91594593 9.5625 33.375 C9.66691406 34.18710937 9.77132812 34.99921875 9.87890625 35.8359375 C10 38 10 38 9 40 C8.34 40 7.68 40 7 40 C6.896875 40.556875 6.79375 41.11375 6.6875 41.6875 C5.26686244 46.46600817 2.52166553 49.59193658 -1 53 C-1.66 53.99 -2.32 54.98 -3 56 C-3.66 56 -4.32 56 -5 56 C-5.2578125 56.72574219 -5.515625 57.45148438 -5.78125 58.19921875 C-7.05242499 61.12047667 -8.54016402 63.30872649 -10.5 65.8125 C-11.1084375 66.60269531 -11.716875 67.39289063 -12.34375 68.20703125 C-12.8903125 68.79871094 -13.436875 69.39039063 -14 70 C-14.66 70 -15.32 70 -16 70 C-16.226875 70.70125 -16.45375 71.4025 -16.6875 72.125 C-18.28470477 75.62363901 -20.50788129 78.08239761 -23 81 C-23.515625 81.86625 -24.03125 82.7325 -24.5625 83.625 C-26.4385889 86.72462513 -28.83904088 88.94183414 -31.5 91.3671875 C-33.14075483 93.1532175 -33.99922488 94.79829474 -35 97 C-36.32769832 99.92093631 -37.68850923 101.78713284 -40 104 C-40.474375 104.804375 -40.94875 105.60875 -41.4375 106.4375 C-43 109 -43 109 -44.87109375 110.86328125 C-47.72519613 113.7278574 -50.0154354 116.92482521 -52.4140625 120.171875 C-52.93742187 120.77515625 -53.46078125 121.3784375 -54 122 C-54.66 122 -55.32 122 -56 122 C-56.28875 122.763125 -56.5775 123.52625 -56.875 124.3125 C-58 127 -58 127 -60 130 C-60.66 130 -61.32 130 -62 130 C-62.268125 130.804375 -62.53625 131.60875 -62.8125 132.4375 C-63.204375 133.283125 -63.59625 134.12875 -64 135 C-64.99 135.33 -65.98 135.66 -67 136 C-68.10636395 138.39068734 -68.10636395 138.39068734 -69 141 C-69.66 141.99 -70.32 142.98 -71 144 C-71.66 144 -72.32 144 -73 144 C-73.103125 144.7425 -73.20625 145.485 -73.3125 146.25 C-74.04933797 149.1973519 -74.94799142 150.78383074 -77 153 C-77.66 153 -78.32 153 -79 153 C-79.268125 153.804375 -79.53625 154.60875 -79.8125 155.4375 C-80.204375 156.283125 -80.59625 157.12875 -81 158 C-81.99 158.33 -82.98 158.66 -84 159 C-85.10636395 161.39068734 -85.10636395 161.39068734 -86 164 C-86.66 164.99 -87.32 165.98 -88 167 C-88.66 167 -89.32 167 -90 167 C-90.309375 168.0209375 -90.309375 168.0209375 -90.625 169.0625 C-92.12812456 172.27372064 -93.92635941 174.40283369 -96.27734375 177.01953125 C-98.84922733 179.97632258 -101.1516699 183.1302934 -103.484375 186.27734375 C-104.23460937 187.13005859 -104.23460937 187.13005859 -105 188 C-105.66 188 -106.32 188 -107 188 C-107.20625 189.010625 -107.4125 190.02125 -107.625 191.0625 C-108.72992881 195.00981814 -110.79683247 197.46261074 -113.5625 200.421875 C-115.20731191 202.14822267 -115.20731191 202.14822267 -117 205 C-117.66 205 -118.32 205 -119 205 C-119.2578125 205.72574219 -119.515625 206.45148438 -119.78125 207.19921875 C-121.05242499 210.12047667 -122.54016402 212.30872649 -124.5 214.8125 C-125.1084375 215.60269531 -125.716875 216.39289063 -126.34375 217.20703125 C-126.8903125 217.79871094 -127.436875 218.39039063 -128 219 C-128.66 219 -129.32 219 -130 219 C-130.33 219.99 -130.66 220.98 -131 222 C-132 219 -132 219 -131.0625 216.8125 C-130.711875 216.214375 -130.36125 215.61625 -130 215 C-129.34 215 -128.68 215 -128 215 C-127.79375 213.989375 -127.5875 212.97875 -127.375 211.9375 C-126.2691196 207.95794498 -124.15769192 205.52687566 -121.33984375 202.578125 C-119.76799856 200.92555124 -119.76799856 200.92555124 -119 198 C-118.34 198 -117.68 198 -117 198 C-116.566875 196.63875 -116.566875 196.63875 -116.125 195.25 C-115.23468224 192.67797092 -114.28505587 190.38653234 -113 188 C-112.34 188 -111.68 188 -111 188 C-110.896875 187.46375 -110.79375 186.9275 -110.6875 186.375 C-109.81907303 183.37497956 -108.44379704 180.7620465 -107 178 C-106.34 178 -105.68 178 -105 178 C-104.566875 176.6078125 -104.566875 176.6078125 -104.125 175.1875 C-103 172 -103 172 -101 169 C-100.34 169 -99.68 169 -99 169 C-98.87625 168.278125 -98.7525 167.55625 -98.625 166.8125 C-97.5926632 162.16698442 -96.33074966 159.33074966 -93 156 C-91.95377125 154.02379014 -90.94560065 152.0262871 -90 150 C-89.34 150 -88.68 150 -88 150 C-87.896875 149.29875 -87.79375 148.5975 -87.6875 147.875 C-86.89945728 144.57954861 -85.67130238 141.94149219 -84 139 C-83.34 138.67 -82.68 138.34 -82 138 C-80.95191959 136.02477154 -79.9479589 134.02518491 -79 132 C-78.34 132 -77.68 132 -77 132 C-76.896875 131.29875 -76.79375 130.5975 -76.6875 129.875 C-75.90640997 126.60862353 -74.57941257 123.9528148 -73 121 C-72.34 121 -71.68 121 -71 121 C-70.71125 120.071875 -70.4225 119.14375 -70.125 118.1875 C-69 115 -69 115 -67 112 C-66.34 112 -65.68 112 -65 112 C-64.814375 110.9171875 -64.814375 110.9171875 -64.625 109.8125 C-63.5926632 105.16698442 -62.33074966 102.33074966 -59 99 C-57.95377125 97.02379014 -56.94560065 95.0262871 -56 93 C-55.34 93 -54.68 93 -54 93 C-53.896875 92.46375 -53.79375 91.9275 -53.6875 91.375 C-52.81907303 88.37497956 -51.44379704 85.7620465 -50 83 C-49.34 83 -48.68 83 -48 83 C-47.731875 81.865625 -47.46375 80.73125 -47.1875 79.5625 C-46.795625 78.386875 -46.40375 77.21125 -46 76 C-45.01 75.67 -44.02 75.34 -43 75 C-42.896875 74.29875 -42.79375 73.5975 -42.6875 72.875 C-41.51443011 67.96943503 -39.51654992 64.51654992 -36 61 C-34.95377125 59.02379014 -33.94560065 57.0262871 -33 55 C-32.34 55 -31.68 55 -31 55 C-30.814375 53.88625 -30.814375 53.88625 -30.625 52.75 C-30.04513299 50.19858515 -29.26291261 48.2732427 -28 46 C-27.34 46 -26.68 46 -26 46 C-25.71125 45.113125 -25.4225 44.22625 -25.125 43.3125 C-24.16851252 40.49617576 -23.13201054 37.74916844 -22 35 C-21.34 35 -20.68 35 -20 35 C-19.71125 34.071875 -19.4225 33.14375 -19.125 32.1875 C-18 29 -18 29 -16 26 C-15.34 26 -14.68 26 -14 26 C-13.896875 25.29875 -13.79375 24.5975 -13.6875 23.875 C-12.90640997 20.60862353 -11.57941257 17.9528148 -10 15 C-9.34 15 -8.68 15 -8 15 C-7.5359375 13.576875 -7.5359375 13.576875 -7.0625 12.125 C-6 9 -6 9 -5 7 C-4.34 7 -3.68 7 -3 7 C-2.814375 6.1028125 -2.814375 6.1028125 -2.625 5.1875 C-2 3 -2 3 0 0 Z " fill="#090B0D" transform="translate(241,360)"/>
<path d="M0 0 C0.99 0.495 0.99 0.495 2 1 C2 2.65 2 4.3 2 6 C2.66 6 3.32 6 4 6 C4.50435694 7.9363704 5.00333874 9.87414146 5.5 11.8125 C5.7784375 12.89144531 6.056875 13.97039062 6.34375 15.08203125 C7 18 7 18 7 21 C7.66 21 8.32 21 9 21 C9.67413211 22.91405367 10.3390332 24.83136026 11 26.75 C11.37125 27.81734375 11.7425 28.8846875 12.125 29.984375 C13 33 13 33 13 37 C13.66 37 14.32 37 15 37 C15.67126129 39.4363189 16.33716354 41.87388883 17 44.3125 C17.19078125 45.00279297 17.3815625 45.69308594 17.578125 46.40429688 C18.37716184 49.35787949 19 51.92559219 19 55 C19.66 55 20.32 55 21 55 C24.44419134 64.41002278 24.44419134 64.41002278 24 69 C24.66 69 25.32 69 26 69 C26.67610423 70.89248819 27.34050439 72.7891602 28 74.6875 C28.556875 76.27111328 28.556875 76.27111328 29.125 77.88671875 C29.9391857 80.78362056 30.17709796 83.01700623 30 86 C30.66 86 31.32 86 32 86 C32.67220351 87.93558599 33.33758077 89.87354372 34 91.8125 C34.37125 92.89144531 34.7425 93.97039062 35.125 95.08203125 C36 98 36 98 36 101 C36.66 101 37.32 101 38 101 C38.50471197 102.76949612 39.00360685 104.54065223 39.5 106.3125 C39.7784375 107.29863281 40.056875 108.28476562 40.34375 109.30078125 C41 112 41 112 41 115 C41.66 115 42.32 115 43 115 C43.67155349 117.26949102 44.3373963 119.5403961 45 121.8125 C45.37125 123.07707031 45.7425 124.34164062 46.125 125.64453125 C47 129 47 129 47 132 C47.66 132 48.32 132 49 132 C49.67155349 134.26949102 50.3373963 136.5403961 51 138.8125 C51.556875 140.70935547 51.556875 140.70935547 52.125 142.64453125 C53 146 53 146 53 149 C53.66 149 54.32 149 55 149 C55.67610423 150.89248819 56.34050439 152.7891602 57 154.6875 C57.37125 155.74324219 57.7425 156.79898438 58.125 157.88671875 C58.9391857 160.78362056 59.17709796 163.01700623 59 166 C59.66 166 60.32 166 61 166 C61.50512244 167.60256108 62.00391627 169.20711792 62.5 170.8125 C62.7784375 171.70582031 63.056875 172.59914063 63.34375 173.51953125 C64 176 64 176 64 179 C64.66 179 65.32 179 66 179 C66.67364661 181.08108685 67.33866798 183.1649671 68 185.25 C68.37125 186.41015625 68.7425 187.5703125 69.125 188.765625 C70 192 70 192 70 196 C70.66 196 71.32 196 72 196 C72.67184618 198.10251861 73.33730968 200.20707763 74 202.3125 C74.37125 203.48425781 74.7425 204.65601563 75.125 205.86328125 C76 209 76 209 76 212 C76.66 212 77.32 212 78 212 C78.50757862 213.41396902 79.00574925 214.83131729 79.5 216.25 C79.7784375 217.03890625 80.056875 217.8278125 80.34375 218.640625 C81 221 81 221 81 225 C81.66 225 82.32 225 83 225 C84.32 230.28 85.64 235.56 87 241 C87.66 241 88.32 241 89 241 C90.35148541 245.30785975 91 248.41957592 91 253 C87.37 252.67 83.74 252.34 80 252 C80 251.34 80 250.68 80 250 C78.02 250 76.04 250 74 250 C74 249.34 74 248.68 74 248 C69.71 247.67 65.42 247.34 61 247 C61 245.35 61 243.7 61 242 C60.34 242 59.68 242 59 242 C58.32409812 238.62678224 57.66094482 235.25117758 57 231.875 C56.80921875 230.92367187 56.6184375 229.97234375 56.421875 228.9921875 C55.50243109 224.26361884 54.7390237 219.84437265 55 215 C54.34 215 53.68 215 53 215 C52.32861379 211.73011701 51.66370737 208.45894951 51 205.1875 C50.80921875 204.25873047 50.6184375 203.32996094 50.421875 202.37304688 C50.24140625 201.48037109 50.0609375 200.58769531 49.875 199.66796875 C49.62363281 198.43469849 49.62363281 198.43469849 49.3671875 197.17651367 C49 195 49 195 49 192 C48.34 192 47.68 192 47 192 C46.32533254 188.77245186 45.66169431 185.54273065 45 182.3125 C44.80921875 181.40048828 44.6184375 180.48847656 44.421875 179.54882812 C44.24140625 178.66259766 44.0609375 177.77636719 43.875 176.86328125 C43.62363281 175.64572144 43.62363281 175.64572144 43.3671875 174.40356445 C42.9846287 171.89938135 42.93701491 169.52924498 43 167 C42.34 167 41.68 167 41 167 C40.49766027 164.54212344 39.99803143 162.08374976 39.5 159.625 C39.35691406 158.92632813 39.21382813 158.22765625 39.06640625 157.5078125 C38 152.2265625 38 152.2265625 38 150 C37.34 150 36.68 150 36 150 C35.87882812 149.2265625 35.75765625 148.453125 35.6328125 147.65625 C34.50326947 140.58868996 34.50326947 140.58868996 32.875 133.625 C32.06060206 130.25106568 31.8274812 127.45037591 32 124 C31.34 124 30.68 124 30 124 C29.32184046 121.33580182 28.65734223 118.66934242 28 116 C27.80921875 115.25621094 27.6184375 114.51242187 27.421875 113.74609375 C26.19252201 108.69696542 25.81105478 104.19599358 26 99 C25.34 99 24.68 99 24 99 C23.49309416 96.93918639 22.99475381 94.87626474 22.5 92.8125 C22.2215625 91.66394531 21.943125 90.51539063 21.65625 89.33203125 C21.08504615 86.43181171 20.86716221 83.93903615 21 81 C20.34 81 19.68 81 19 81 C18.32391731 78.14777615 17.65894885 75.29368707 17 72.4375 C16.80921875 71.63763672 16.6184375 70.83777344 16.421875 70.01367188 C15.32538878 65.21654468 14.78867803 60.91983966 15 56 C14.34 56 13.68 56 13 56 C10.74190046 47.9901375 9.42741229 40.3124321 9 32 C8.34 32 7.68 32 7 32 C6.49219106 29.79344925 5.99408635 27.58466395 5.5 25.375 C5.2215625 24.14523437 4.943125 22.91546875 4.65625 21.6484375 C4.05908379 18.32847772 3.87590466 15.36091549 4 12 C3.34 12 2.68 12 2 12 C0.86235649 7.73383684 0 4.43513689 0 0 Z " fill="#C4272D" transform="translate(246,363)"/>
<path d="M0 0 C2.625 -0.1875 2.625 -0.1875 5 0 C5 0.66 5 1.32 5 2 C7.97 2.495 7.97 2.495 11 3 C11 3.66 11 4.32 11 5 C16.445 5.495 16.445 5.495 22 6 C22 6.66 22 7.32 22 8 C24.97 8.33 27.94 8.66 31 9 C31 9.66 31 10.32 31 11 C33.64 11.33 36.28 11.66 39 12 C39 12.66 39 13.32 39 14 C40.65 14 42.3 14 44 14 C44 14.66 44 15.32 44 16 C47.63 16.33 51.26 16.66 55 17 C55 17.66 55 18.32 55 19 C58.3 19.33 61.6 19.66 65 20 C65 20.66 65 21.32 65 22 C67.97 22.33 70.94 22.66 74 23 C74 23.66 74 24.32 74 25 C77.3 25.33 80.6 25.66 84 26 C84 26.66 84 27.32 84 28 C87.3 28.33 90.6 28.66 94 29 C94 29.66 94 30.32 94 31 C96.31 31.33 98.62 31.66 101 32 C101 32.66 101 33.32 101 34 C104.3 34.33 107.6 34.66 111 35 C111 35.66 111 36.32 111 37 C112.98 37 114.96 37 117 37 C117 37.66 117 38.32 117 39 C119.64 39.33 122.28 39.66 125 40 C125 40.66 125 41.32 125 42 C128.3 42.33 131.6 42.66 135 43 C135 43.66 135 44.32 135 45 C138.3 45.33 141.6 45.66 145 46 C145 46.66 145 47.32 145 48 C148.3 48.33 151.6 48.66 155 49 C155 49.66 155 50.32 155 51 C158.3 51.33 161.6 51.66 165 52 C165 52.66 165 53.32 165 54 C167.97 54.33 170.94 54.66 174 55 C174 55.66 174 56.32 174 57 C175.65 57 177.3 57 179 57 C179 57.66 179 58.32 179 59 C182.63 59.33 186.26 59.66 190 60 C190 60.66 190 61.32 190 62 C192.31 62.33 194.62 62.66 197 63 C197 63.66 197 64.32 197 65 C195.35 65 193.7 65 192 65 C192 64.34 192 63.68 192 63 C191.28714844 63.01160156 190.57429687 63.02320313 189.83984375 63.03515625 C184.43674634 63.08606026 179.32171525 62.94608271 174 62 C174 61.34 174 60.68 174 60 C173.3709375 60.01160156 172.741875 60.02320313 172.09375 60.03515625 C166.61930912 60.09286873 161.41542194 59.80228473 156 59 C156 58.34 156 57.68 156 57 C152.7 57 149.4 57 146 57 C146 56.34 146 55.68 146 55 C144.948125 55.01740234 144.948125 55.01740234 143.875 55.03515625 C138.13886898 55.08971184 132.67221747 54.85618377 127 54 C127 53.34 127 52.68 127 52 C126.09121094 52.01740234 126.09121094 52.01740234 125.1640625 52.03515625 C119.04075052 52.10109961 113.07906669 51.72431433 107 51 C107 50.34 107 49.68 107 49 C106.03900391 49.01740234 106.03900391 49.01740234 105.05859375 49.03515625 C99.91346778 49.08883119 95.06975076 48.88169578 90 48 C90 47.34 90 46.68 90 46 C83.73 45.67 77.46 45.34 71 45 C71 44.34 71 43.68 71 43 C70.32195312 43.01160156 69.64390625 43.02320313 68.9453125 43.03515625 C62.55795793 43.09708351 56.34030324 42.77018868 50 42 C50 41.34 50 40.68 50 40 C48.98679688 40.01740234 48.98679688 40.01740234 47.953125 40.03515625 C47.06109375 40.04417969 46.1690625 40.05320312 45.25 40.0625 C44.36828125 40.07410156 43.4865625 40.08570313 42.578125 40.09765625 C40.2181162 40.00826198 38.25501476 39.66912821 36 39 C36 38.34 36 37.68 36 37 C33.03 37 30.06 37 27 37 C27 36.34 27 35.68 27 35 C26.27296875 35.01160156 25.5459375 35.02320313 24.796875 35.03515625 C17.47368041 35.10087723 10.28633314 34.7234657 3 34 C3 33.34 3 32.68 3 32 C-2.28 31.67 -7.56 31.34 -13 31 C-13 30.34 -13 29.68 -13 29 C-15.31 29 -17.62 29 -20 29 C-18.515 25.535 -18.515 25.535 -17 22 C-16.34 22 -15.68 22 -15 22 C-14.5978125 20.7934375 -14.5978125 20.7934375 -14.1875 19.5625 C-13.5996875 18.2940625 -13.5996875 18.2940625 -13 17 C-12.01 16.67 -11.02 16.34 -10 16 C-8.89363605 13.60931266 -8.89363605 13.60931266 -8 11 C-7.34 10.01 -6.68 9.02 -6 8 C-5.34 8 -4.68 8 -4 8 C-3.71125 7.236875 -3.4225 6.47375 -3.125 5.6875 C-2 3 -2 3 0 0 Z " fill="#81C447" transform="translate(134,556)"/>
<path d="M0 0 C7.59 0 15.18 0 23 0 C23 48.84 23 97.68 23 148 C15.41 148 7.82 148 0 148 C0 99.16 0 50.32 0 0 Z " fill="#292D30" transform="translate(1289,419)"/>
<path d="M0 0 C0 8.25 0 16.5 0 25 C-3.465 24.87625 -3.465 24.87625 -7 24.75 C-15.18975205 24.65315279 -19.90693519 26.04440473 -25.8125 31.6875 C-31.50977845 40.31480737 -31.46800903 49.2847441 -31.51171875 59.31640625 C-31.52859316 60.78329443 -31.54674705 62.2501684 -31.56611633 63.71702576 C-31.61332335 67.54899653 -31.643321 71.38090966 -31.66955566 75.21307373 C-31.69951039 79.13500348 -31.74598887 83.05673509 -31.79101562 86.97851562 C-31.87671483 94.65226165 -31.94267683 102.32597992 -32 110 C-39.59 110 -47.18 110 -55 110 C-55 74.36 -55 38.72 -55 2 C-47.74 2 -40.48 2 -33 2 C-32.505 9.92 -32.505 9.92 -32 18 C-31.154375 16.63875 -30.30875 15.2775 -29.4375 13.875 C-21.65796611 2.31475805 -14.08023602 0 0 0 Z " fill="#2C3133" transform="translate(557,457)"/>
<path d="M0 0 C7.59 0 15.18 0 23 0 C23 35.64 23 71.28 23 108 C15.41 108 7.82 108 0 108 C0 72.36 0 36.72 0 0 Z " fill="#282D2F" transform="translate(986,459)"/>
<path d="M0 0 C7.59 0 15.18 0 23 0 C23 35.64 23 71.28 23 108 C15.41 108 7.82 108 0 108 C0 72.36 0 36.72 0 0 Z " fill="#2D3234" transform="translate(570,459)"/>
<path d="M0 0 C1.77977407 2.6696611 2.61768539 4.52950382 3.57226562 7.52807617 C3.86597046 8.44300339 4.15967529 9.3579306 4.46228027 10.30058289 C4.77379028 11.28807022 5.08530029 12.27555756 5.40625 13.29296875 C5.73161743 14.31296463 6.05698486 15.33296051 6.39221191 16.38386536 C7.0802897 18.54434006 7.76606126 20.70555041 8.44970703 22.86743164 C9.49093223 26.158836 10.53976418 29.44773932 11.58984375 32.73632812 C12.25826717 34.83839714 12.92625005 36.94060631 13.59375 39.04296875 C13.90526001 40.02033493 14.21677002 40.99770111 14.53771973 42.00468445 C14.83142456 42.93537247 15.12512939 43.86606049 15.42773438 44.82495117 C15.68373413 45.63308762 15.93973389 46.44122406 16.20349121 47.27384949 C17.23972035 50.82047274 18.10385442 54.41541767 19 58 C6.46 58 -6.08 58 -19 58 C-17.26117755 52.47137016 -15.52049569 46.94338932 -13.77539062 41.41674805 C-13.18483467 39.54467926 -12.59528157 37.67229375 -12.00683594 35.79956055 C-8.22943364 23.78084624 -4.28501032 11.84777021 0 0 Z " fill="#F7F8F8" transform="translate(1211,450)"/>
<path d="M0 0 C1.02480469 0.00322266 2.04960938 0.00644531 3.10546875 0.00976562 C4.16894531 0.01814453 5.23242188 0.02652344 6.328125 0.03515625 C7.40707031 0.03966797 8.48601563 0.04417969 9.59765625 0.04882812 C12.25786883 0.06059898 14.91796865 0.07704226 17.578125 0.09765625 C18.11838416 8.63341494 17.68408339 14.9910459 12.578125 22.09765625 C7.93077852 27.14789768 3.43881238 30.68211293 -3.54296875 31.43359375 C-14.83218545 31.5665645 -14.83218545 31.5665645 -19.421875 27.09765625 C-22.56941971 23.42552075 -22.96025654 20.05845199 -22.7578125 15.37109375 C-22.1990952 11.59000689 -21.04692927 8.89678574 -18.421875 6.09765625 C-12.50678014 1.90824962 -7.22984991 -0.04016583 0 0 Z " fill="#F8F8F8" transform="translate(761.421875,518.90234375)"/>
<path d="M0 0 C4.46467506 4.04935645 6.39349996 7.37949974 7.25 13.375 C6.96808696 18.20511014 4.91610157 21.89986352 1.6875 25.4375 C-3.00131781 28.2160587 -6.8985063 29.12655374 -12.3125 28.4375 C-16.61819678 26.15801347 -19.79864134 23.62726444 -22.3125 19.4375 C-23.71883143 14.70133867 -23.7880555 10.68921442 -21.8125 6.125 C-17.07561112 -1.97459497 -8.30511248 -3.91750589 0 0 Z " fill="#2A2E31" transform="translate(1005.3125,417.5625)"/>
<path d="M0 0 C4.81852225 2.36380337 7.67076821 5.16236475 10 10 C10.7971639 14.99447589 10.57907893 18.79729761 8.375 23.375 C4.50879423 27.6481748 1.35378517 30.20485117 -4.5 30.5 C-10.35378517 30.20485117 -13.50879423 27.6481748 -17.375 23.375 C-19.57907893 18.79729761 -19.7971639 14.99447589 -19 10 C-15.10016268 1.90033788 -8.75214549 -1.53987479 0 0 Z " fill="#282C2F" transform="translate(586,416)"/>
<path d="M0 0 C7.59 0 15.18 0 23 0 C23 35.64 23 71.28 23 108 C15.41 108 7.82 108 0 108 C0 72.36 0 36.72 0 0 Z M2 2 C2 36.32 2 70.64 2 106 C8.6 106 15.2 106 22 106 C22 71.68 22 37.36 22 2 C15.4 2 8.8 2 2 2 Z " fill="#0A0C0E" transform="translate(570,459)"/>
<path d="M0 0 C34.65 0 69.3 0 105 0 C105 7.92 105 15.84 105 24 C91.47 24 77.94 24 64 24 C64 23.67 64 23.34 64 23 C77.2 23 90.4 23 104 23 C104 16.07 104 9.14 104 2 C70.34 2 36.68 2 2 2 C2 8.93 2 15.86 2 23 C14.54 23 27.08 23 40 23 C40 23.33 40 23.66 40 24 C26.8 24 13.6 24 0 24 C0 16.08 0 8.16 0 0 Z " fill="#15181B" transform="translate(393,419)"/>
<path d="M0 0 C7.26 0.33 14.52 0.66 22 1 C22 5.62 22 10.24 22 15 C21.67 15 21.34 15 21 15 C21 10.71 21 6.42 21 2 C14.4 2 7.8 2 1 2 C1 36.32 1 70.64 1 106 C7.6 106 14.2 106 21 106 C20.98952637 104.04666748 20.97905273 102.09333496 20.96826172 100.08081055 C20.93602613 93.63075135 20.91303707 87.18071121 20.89637566 80.73059368 C20.88593343 76.81945488 20.87176628 72.90840314 20.84912109 68.99731445 C20.82740827 65.22368831 20.81543468 61.45014596 20.81024551 57.67646217 C20.80654694 56.23593641 20.79932464 54.79541529 20.78853989 53.35492516 C20.77404653 51.33911986 20.77318326 49.32323044 20.77294922 47.30737305 C20.768508 46.15931686 20.76406677 45.01126068 20.75949097 43.82841492 C21 41 21 41 23 38 C23 61.1 23 84.2 23 108 C15.41 108 7.82 108 0 108 C0 72.36 0 36.72 0 0 Z " fill="#141719" transform="translate(612,459)"/>
<path d="M0 0 C0.33 0 0.66 0 1 0 C1 34.98 1 69.96 1 106 C7.6 106 14.2 106 21 106 C20.97905273 104.05826904 20.95810547 102.11653809 20.93652344 100.1159668 C20.8717223 93.6620109 20.82592563 87.20813265 20.79275131 80.75393963 C20.77197832 76.84513169 20.74385232 72.93667946 20.69824219 69.02807617 C20.65441257 65.24790318 20.63078578 61.46806984 20.62049103 57.68766212 C20.61316553 56.25370763 20.59886267 54.81976929 20.57707977 53.38596153 C20.45130274 44.75465897 20.80453892 36.77708969 25 29 C25.66 28.67 26.32 28.34 27 28 C26.5155542 29.14654053 26.0311084 30.29308105 25.53198242 31.47436523 C23.17361086 38.59661097 23.51824893 45.99366097 23.48828125 53.41015625 C23.47141007 54.98914464 23.45325659 56.56811979 23.43388367 58.14707947 C23.3866419 62.27497217 23.35666639 66.4028112 23.33044434 70.53088379 C23.3005075 74.75442091 23.25402271 78.97777357 23.20898438 83.20117188 C23.12324543 91.46737195 23.05730255 99.73355384 23 108 C15.41 108 7.82 108 0 108 C0 72.36 0 36.72 0 0 Z " fill="#262728" transform="translate(821,459)"/>
<path d="M0 0 C0.33 0 0.66 0 1 0 C1 40.26 1 80.52 1 122 C7.93 122 14.86 122 22 122 C22 81.74 22 41.48 22 0 C22.33 0 22.66 0 23 0 C23 40.92 23 81.84 23 124 C15.08 124 7.16 124 -1 124 C-0.67 83.08 -0.34 42.16 0 0 Z " fill="#0C0F11" transform="translate(434,443)"/>
<path d="M0 0 C2 2 2 2 2.23047829 3.8703022 C2.22126036 4.63539038 2.21204243 5.40047855 2.20254517 6.18875122 C2.19688034 7.06657257 2.19121552 7.94439392 2.18537903 8.84881592 C2.16883774 9.81410217 2.15229645 10.77938843 2.13525391 11.77392578 C2.12579239 12.78858917 2.11633087 13.80325256 2.10658264 14.84866333 C2.07280912 18.21439262 2.02471991 21.57976076 1.9765625 24.9453125 C1.95040528 27.27415005 1.92513748 29.60299774 1.90072632 31.93185425 C1.83397845 38.07062589 1.75510659 44.20918498 1.67376709 50.34777832 C1.59294148 56.6080711 1.52350262 62.86848884 1.453125 69.12890625 C1.31327054 81.41942743 1.1595649 93.7097189 1 106 C7.6 106 14.2 106 21 106 C20.98952637 104.33614258 20.97905273 102.67228516 20.96826172 100.95800781 C20.93579923 95.41406221 20.91293496 89.8701304 20.89637566 84.32611465 C20.88601014 80.97010152 20.87087845 77.61427072 20.84912109 74.25830078 C20.8246566 70.38571499 20.81346753 66.51327442 20.8046875 62.640625 C20.79436493 61.455755 20.78404236 60.27088501 20.77340698 59.05010986 C20.77242208 51.61566322 21.06919804 44.22033896 23 37 C23.66 36.34 24.32 35.68 25 35 C24.83923477 36.01365128 24.67846954 37.02730255 24.51283264 38.07167053 C24.03780496 41.71041171 23.84393223 45.1873297 23.79467773 48.85327148 C23.77982834 49.82040825 23.77982834 49.82040825 23.76467896 50.80708313 C23.73340711 52.9117176 23.70844431 55.01637454 23.68359375 57.12109375 C23.66299447 58.59083094 23.64199727 60.0605626 23.62062073 61.5302887 C23.5657069 65.37872816 23.51616371 69.22721834 23.46777344 73.07574463 C23.41733277 77.01082821 23.36176509 80.94583911 23.30664062 84.88085938 C23.19943503 92.58717947 23.09838276 100.29356129 23 108 C15.41 108 7.82 108 0 108 C0 72.36 0 36.72 0 0 Z " fill="#101315" transform="translate(502,459)"/>
<path d="M0 0 C2.12188907 4.24377814 2.2440091 6.14150613 2.22705078 10.78808594 C2.22734283 11.46166641 2.22763489 12.13524689 2.22793579 12.82923889 C2.22654641 15.04775026 2.21100401 17.26592256 2.1953125 19.484375 C2.19158097 21.02565324 2.18873466 22.56693387 2.18673706 24.10821533 C2.17911161 28.15902286 2.15947253 32.2096863 2.1373291 36.26043701 C2.1168472 40.3962611 2.10773033 44.53210853 2.09765625 48.66796875 C2.07622553 56.77871923 2.04105232 64.88932507 2 73 C8.6 73 15.2 73 22 73 C22 49.24 22 25.48 22 1 C22.33 1 22.66 1 23 1 C23 25.42 23 49.84 23 75 C15.41 75 7.82 75 0 75 C0 50.25 0 25.5 0 0 Z " fill="#15191B" transform="translate(944,492)"/>
<path d="M0 0 C0.33 0 0.66 0 1 0 C1 13.53 1 27.06 1 41 C7.6 41 14.2 41 21 41 C21 38.36 21 35.72 21 33 C21.33 33 21.66 33 22 33 C22 36.3 22 39.6 22 43 C14.41 43 6.82 43 -1 43 C-1.02319226 38.804778 -1.04303229 34.60978627 -1.05493164 30.41455078 C-1.05990212 28.99299356 -1.06668084 27.57144128 -1.07543945 26.14990234 C-1.12801256 17.38565643 -0.92025062 8.72733736 0 0 Z " fill="#1C2023" transform="translate(571,524)"/>
<path d="M0 0 C7.26 0 14.52 0 22 0 C22 0.66 22 1.32 22 2 C15.4 2 8.8 2 2 2 C2 11.9 2 21.8 2 32 C1.67 32 1.34 32 1 32 C0.40909555 21.32151252 -0.14075771 10.69758597 0 0 Z " fill="#1A1E22" transform="translate(570,459)"/>
<path d="M0 0 C0.33 0 0.66 0 1 0 C1.33 2.64 1.66 5.28 2 8 C2.66 8 3.32 8 4 8 C4.50354867 10.43681587 5.00296756 12.87435439 5.5 15.3125 C5.64308594 16.00279297 5.78617188 16.69308594 5.93359375 17.40429688 C6.52625044 20.32524773 7 23.01108122 7 26 C6.01 25.67 5.02 25.34 4 25 C4 24.01 4 23.02 4 22 C3.34 22 2.68 22 2 22 C1.46775449 19.27261765 0.94892004 16.54379566 0.4375 13.8125 C0.21030273 12.65911133 0.21030273 12.65911133 -0.02148438 11.48242188 C-0.78168763 7.363181 -1.24229918 4.10534631 0 0 Z " fill="#EAD9DA" transform="translate(246,367)"/>
<path d="M0 0 C2.31 0 4.62 0 7 0 C7 8.25 7 16.5 7 25 C1.72 24.67 -3.56 24.34 -9 24 C-9 23.67 -9 23.34 -9 23 C-4.38 23 0.24 23 5 23 C5 15.74 5 8.48 5 1 C3.35 1 1.7 1 0 1 C0 0.67 0 0.34 0 0 Z " fill="#131719" transform="translate(550,457)"/>
<path d="M0 0 C8.91 0 17.82 0 27 0 C25.35 2.64 23.7 5.28 22 8 C21.67 7.34 21.34 6.68 21 6 C21.66 5.01 22.32 4.02 23 3 C19.37501666 2.97106068 15.75006287 2.95322208 12.125 2.9375 C11.09246094 2.92912109 10.05992188 2.92074219 8.99609375 2.91210938 C8.00996094 2.90888672 7.02382812 2.90566406 6.0078125 2.90234375 C5.09660645 2.89710693 4.18540039 2.89187012 3.24658203 2.88647461 C0.96312491 2.85114435 0.96312491 2.85114435 -1 4 C-0.67 2.68 -0.34 1.36 0 0 Z " fill="#1C1F22" transform="translate(1091,459)"/>
<path d="M0 0 C9.24 0 18.48 0 28 0 C28 0.66 28 1.32 28 2 C20.08 2.33 12.16 2.66 4 3 C3.67 3.66 3.34 4.32 3 5 C1.5 3.625 1.5 3.625 0 2 C0 1.34 0 0.68 0 0 Z " fill="#1D2023" transform="translate(1023,459)"/>
<path d="M0 0 C1.32 0 2.64 0 4 0 C3.45994624 4.16507217 2.16934899 6.54445439 -0.4375 9.8125 C-1.05496094 10.60269531 -1.67242187 11.39289062 -2.30859375 12.20703125 C-2.86675781 12.79871094 -3.42492187 13.39039063 -4 14 C-4.66 14 -5.32 14 -6 14 C-6.33 14.99 -6.66 15.98 -7 17 C-8 14 -8 14 -7.0625 11.8125 C-6.5365625 10.9153125 -6.5365625 10.9153125 -6 10 C-5.34 10 -4.68 10 -4 10 C-3.566875 8.3603125 -3.566875 8.3603125 -3.125 6.6875 C-2 3 -2 3 0 0 Z " fill="#181A1C" transform="translate(117,565)"/>
<path d="M0 0 C0.99 0.495 0.99 0.495 2 1 C2 2.65 2 4.3 2 6 C2.66 6 3.32 6 4 6 C4.50435694 7.9363704 5.00333874 9.87414146 5.5 11.8125 C5.7784375 12.89144531 6.056875 13.97039062 6.34375 15.08203125 C7 18 7 18 7 21 C7.66 21 8.32 21 9 21 C9 21.66 9 22.32 9 23 C7.68 23.33 6.36 23.66 5 24 C4.67 20.04 4.34 16.08 4 12 C3.34 12 2.68 12 2 12 C0.86235649 7.73383684 0 4.43513689 0 0 Z " fill="#CB4247" transform="translate(246,363)"/>
<path d="M0 0 C1.98 0 3.96 0 6 0 C6 0.66 6 1.32 6 2 C7.98 2 9.96 2 12 2 C12 2.66 12 3.32 12 4 C10.39679026 4.19551338 8.79237014 4.38111983 7.1875 4.5625 C6.29417969 4.66691406 5.40085937 4.77132812 4.48046875 4.87890625 C2 5 2 5 -1 4 C-0.67 2.68 -0.34 1.36 0 0 Z " fill="#ECD1CB" transform="translate(314,611)"/>
<path d="M0 0 C1.32 0 2.64 0 4 0 C4 0.66 4 1.32 4 2 C6.31 2.33 8.62 2.66 11 3 C11 3.66 11 4.32 11 5 C9.35 5 7.7 5 6 5 C6 4.34 6 3.68 6 3 C2.37 3 -1.26 3 -5 3 C-5 2.67 -5 2.34 -5 2 C-3.35 2 -1.7 2 0 2 C0 1.34 0 0.68 0 0 Z " fill="#9CD16F" transform="translate(320,616)"/>
<path d="M0 0 C3.96 0 7.92 0 12 0 C12.33 0.99 12.66 1.98 13 3 C8.71 3 4.42 3 0 3 C0 2.01 0 1.02 0 0 Z " fill="#33383A" transform="translate(865,457)"/>
<path d="M0 0 C1.32 0 2.64 0 4 0 C3.125 4.75 3.125 4.75 2 7 C0.68 6.67 -0.64 6.34 -2 6 C-1.49396008 3.83125748 -1.00016187 2.00032373 0 0 Z " fill="#1F2123" transform="translate(117,565)"/>
<path d="M0 0 C2.97 0 5.94 0 9 0 C9 0.99 9 1.98 9 3 C6.03 3 3.06 3 0 3 C0 2.01 0 1.02 0 0 Z " fill="#363A3D" transform="translate(577,443)"/>
<path d="M0 0 C0.66 0 1.32 0 2 0 C3.80230168 3.82989106 4.19622241 6.78121808 4 11 C2 8 2 8 2 5 C1.34 5 0.68 5 0 5 C0 3.35 0 1.7 0 0 Z " fill="#F2F1F1" transform="translate(242,358)"/>
<path d="M0 0 C-0.66 0.66 -1.32 1.32 -2 2 C-4.1640625 1.9765625 -4.1640625 1.9765625 -6.625 1.625 C-7.44226563 1.51414062 -8.25953125 1.40328125 -9.1015625 1.2890625 C-9.72804688 1.19367188 -10.35453125 1.09828125 -11 1 C-6.8204355 -1.78637633 -4.85331323 -0.79562512 0 0 Z " fill="#212527" transform="translate(555,458)"/>
<path d="M0 0 C1.32 0 2.64 0 4 0 C4.33 1.98 4.66 3.96 5 6 C4.01 5.67 3.02 5.34 2 5 C2 4.01 2 3.02 2 2 C1.34 2 0.68 2 0 2 C0 1.34 0 0.68 0 0 Z " fill="#D9C8C9" transform="translate(248,387)"/>
</svg>
