<?xml version="1.0" standalone="yes"?>
<svg xmlns="http://www.w3.org/2000/svg" width="1058" height="720">
<path style="fill:#010101; stroke:none;" d="M0 0L0 720L1058 720L1058 0L0 0z"/>
<path style="fill:#050709; stroke:none;" d="M557 4C531.943 32.9564 510.347 65.549 487.116 96C432.566 167.501 378.666 239.498 324.116 311C300.773 341.596 277.837 372.516 254.349 403C243.987 416.448 226.347 432.88 221 449C230.24 442.491 237.063 432.95 245 425C263.669 406.301 281.787 387.088 300.039 368C349.079 316.714 399.005 266.28 448.039 215C477.529 184.16 507.554 153.835 537.039 123C549.946 109.502 568.697 96.0029 578.382 80C581.485 74.8729 576.966 66.2068 575.341 61C571.608 49.0381 567.942 37.0269 564.424 25C562.478 18.3455 561.156 9.57837 557 4z"/>
<path style="fill:#c32329; stroke:none;" d="M565 6L577.974 48L609.33 146L683.344 378L722 499L798 513C794.231 499.218 786.262 485.968 780.309 473L741.309 388L635.309 157C618.946 121.359 603.303 85.3204 586.258 50C579.881 36.7842 575.212 16.5233 565 6z"/>
<path style="fill:#7fc343; stroke:none;" d="M235 450L598 497.282L788 522C777.801 514.401 758.307 513.207 746 510.127C715.299 502.441 684.707 494.303 654 486.627C570.926 465.858 487.818 444.89 405 423.116C378.381 416.117 351.704 409.302 325 402.627C314.555 400.015 300.75 393.488 290 393.984C283.46 394.285 277.812 403.6 273.83 408C261.18 421.98 245.798 434.489 235 450z"/>
<path style="fill:#050709; stroke:none;" d="M16 580L7 606C20.2971 601.776 34.2059 603 48 603L24.5725 693L15 716L77 716C73.6752 704.169 77.7344 693.513 80.8488 682C85.4277 665.073 89.6204 648.012 93.8735 631C95.4369 624.746 96.9225 607.757 102.43 604.028C110.258 598.727 131.706 603.365 140 606L143 580L16 580M262 580L256 607L291 607C294.649 607 301.338 608.261 304.436 605.972C309.212 602.443 311.226 585.743 312 580L262 580M854 607L904 607L910 580L875 580C871.453 580 864.699 578.721 861.728 581.028C856.585 585.02 855.274 600.83 854 607M143 616C145.405 628.955 141.15 640.579 137.884 653C132.2 674.619 124.654 694.972 118 716L176 716C173.803 698.618 180.336 681.683 184.849 665C186.575 658.619 187.198 650.823 193.044 646.703C204.103 638.909 223.823 645.002 235 649L243 616C226.578 616 197.984 610.196 190 629L189 629L189 616L143 616M249 616C251.039 641.838 239.591 673.467 231.333 698C229.268 704.133 225.432 709.743 224 716L282 716C279.352 702.301 283.822 690.22 287.127 677C292.216 656.642 297.31 636.199 303 616L249 616M319 616C321.621 628.748 317.493 639.682 314.374 652C308.755 674.193 301.762 694.67 294 716L352 716C350.598 698.232 356.442 681.082 361.29 664C363.309 656.888 364.114 648.615 367.558 642.018C371.165 635.11 391.564 631.972 396.306 639.148C399.428 643.872 394.423 655.02 393 660C387.556 679.053 380.91 697.323 375 716L433 716C429.956 691.911 442.98 668.819 445.714 645C447.303 631.155 438.739 619.06 425 616.468C417.021 614.962 408.099 616 400 616C390.464 616 378.828 613.751 371 620L371 616L319 616M463 640C483.66 634.477 504.722 636 526 636C530.344 636 550.22 638.192 539.768 646.397C535.314 649.893 525.364 648 520 648C501.985 648 469.697 642.242 459.313 661.001C452.69 672.967 446.898 692.876 455.638 704.996C467.896 721.994 514.608 720.918 529 708L530 716L579 716C576.596 696.979 584.292 678.332 588.873 660C591.494 649.515 594.391 638.039 588.633 628C582.045 616.512 570.81 616 559 616L502 616C495.146 616 480.228 613.186 474.418 617.028C468.923 620.662 465.336 633.98 463 640M615 616C619.182 649.093 598.902 685.098 590 716L648 716C644.876 699.174 652.06 682.185 656.127 666C657.995 658.563 659.149 648.627 663.089 642.018C667.402 634.785 687.014 632.172 692.087 639.939C695.127 644.594 690.403 655.103 689.116 660C684.019 679.385 677.798 697.319 671 716L729 716C726.884 699.255 733.085 683.167 737.127 667C739.119 659.03 740.297 649.264 744.279 642.015C748.239 634.807 766.929 632.392 772.397 639.279C776.489 644.433 771.632 654.526 770.151 660C764.899 679.416 758.826 697.242 752 716L810 716C808.555 697.698 814.953 680.682 819.373 663C822.085 652.156 825.804 641.865 821.12 631C812.589 611.213 787.431 616 770 616C761.577 616 751.299 614.055 747 623L745 623C741.22 615.136 733.599 616 726 616C709.852 616 678.66 610.032 666 621L667 616L615 616M847 616C849.49 629.409 844.994 642.154 841.424 655C835.595 675.975 829.401 695.664 822 716L880 716C877.332 682.194 896.518 649.284 901 616L847 616M907 616L942 673L902 701.626L885 716L919.675 715.397L953 690L964.728 714.972L981 716L1026 716C1019.88 702.273 1008.43 689.283 1000.85 676C998.976 672.718 992.693 665.426 993.677 661.515C994.851 656.843 1005.29 651.658 1009 648.873C1022.24 638.945 1040.93 629.133 1051 616L1016.29 616.603L1006 625.334L981 643L971.877 626L968.262 617.028L952 616L907 616z"/>
<path style="fill:#010101; stroke:none;" d="M370 620L371 621L370 620M536 668C528.743 668 521.223 667.433 514 668.171C505.802 669.007 495.021 684.841 501.607 692.566C504.431 695.879 510.143 695 514 695C518.013 695 524.198 696.128 527.775 693.972C533.726 690.387 535.478 674.39 536 668z"/>
</svg>
